<svg xmlns="http://www.w3.org/2000/svg" width="960" height="600" viewBox="0 0 960 600" role="img" aria-label="Local Services">
  <defs>
    <linearGradient id="bg" x1="0" x2="1" y1="0" y2="1">
      <stop offset="0" stop-color="#ffffff"/>
      <stop offset="1" stop-color="#eef5f8"/>
    </linearGradient>
    <linearGradient id="accent" x1="0" x2="1" y1="0" y2="1">
      <stop offset="0" stop-color="#1a9b72"/>
      <stop offset="1" stop-color="#2563eb"/>
    </linearGradient>
    <filter id="shadow" x="-20%" y="-20%" width="140%" height="140%">
      <feDropShadow dx="0" dy="18" stdDeviation="18" flood-color="#102842" flood-opacity=".16"/>
    </filter>
  </defs>
  <rect width="960" height="600" rx="34" fill="url(#bg)"/>
  <circle cx="780" cy="82" r="170" fill="#1a9b72" opacity=".12"/>
  <circle cx="130" cy="520" r="210" fill="#2563eb" opacity=".08"/>
  <rect x="72" y="70" width="816" height="460" rx="28" fill="#fff" filter="url(#shadow)"/>
  <text x="112" y="132" fill="#102842" font-family="Georgia, serif" font-size="42" font-weight="700">Local Services</text>
  <text x="114" y="170" fill="#65748a" font-family="Segoe UI, Arial" font-size="20">Maps, calls, bookings, reviews</text>
  
    <rect x="112" y="214" width="300" height="220" rx="22" fill="#f4f8fb"/>
    <path d="M154 382 C202 300 260 330 310 256 C342 210 372 218 392 238" fill="none" stroke="#cbd8e6" stroke-width="18" stroke-linecap="round"/>
    <circle cx="212" cy="316" r="26" fill="#2563eb"/><circle cx="316" cy="254" r="26" fill="#1a9b72"/><circle cx="162" cy="382" r="20" fill="#d99a22"/>
    <rect x="500" y="214" width="300" height="220" rx="22" fill="#102842"/>
    <rect x="540" y="252" width="220" height="34" rx="12" fill="#fff" opacity=".16"/>
    <rect x="540" y="314" width="132" height="74" rx="16" fill="#2563eb"/><rect x="686" y="314" width="74" height="74" rx="16" fill="#1a9b72"/>
    <text x="540" y="420" fill="#fff" font-family="Segoe UI, Arial" font-size="26" font-weight="700">Call Tracking</text>
</svg>