<svg xmlns="http://www.w3.org/2000/svg" width="960" height="600" viewBox="0 0 960 600" role="img" aria-label="B2B Pipeline">
  <defs>
    <linearGradient id="bg" x1="0" x2="1" y1="0" y2="1">
      <stop offset="0" stop-color="#ffffff"/>
      <stop offset="1" stop-color="#eef5f8"/>
    </linearGradient>
    <linearGradient id="accent" x1="0" x2="1" y1="0" y2="1">
      <stop offset="0" stop-color="#2563eb"/>
      <stop offset="1" stop-color="#2563eb"/>
    </linearGradient>
    <filter id="shadow" x="-20%" y="-20%" width="140%" height="140%">
      <feDropShadow dx="0" dy="18" stdDeviation="18" flood-color="#102842" flood-opacity=".16"/>
    </filter>
  </defs>
  <rect width="960" height="600" rx="34" fill="url(#bg)"/>
  <circle cx="780" cy="82" r="170" fill="#2563eb" opacity=".12"/>
  <circle cx="130" cy="520" r="210" fill="#2563eb" opacity=".08"/>
  <rect x="72" y="70" width="816" height="460" rx="28" fill="#fff" filter="url(#shadow)"/>
  <text x="112" y="132" fill="#102842" font-family="Georgia, serif" font-size="42" font-weight="700">B2B Pipeline</text>
  <text x="114" y="170" fill="#65748a" font-family="Segoe UI, Arial" font-size="20">Qualified leads, demos, long sales cycles</text>
  
    <rect x="118" y="238" width="190" height="230" rx="24" fill="#eef5f8"/>
    <rect x="148" y="280" width="130" height="18" rx="9" fill="#2563eb"/><rect x="148" y="322" width="92" height="18" rx="9" fill="#cbd8e6"/><rect x="148" y="364" width="118" height="18" rx="9" fill="#1a9b72"/>
    <rect x="394" y="216" width="160" height="88" rx="22" fill="#102842"/><rect x="620" y="216" width="160" height="88" rx="22" fill="#2563eb"/>
    <path d="M308 344 H394 M554 260 H620 M474 304 V386 H700" fill="none" stroke="#d99a22" stroke-width="12" stroke-linecap="round"/>
    <rect x="620" y="386" width="184" height="82" rx="22" fill="#1a9b72"/><text x="650" y="438" fill="#fff" font-family="Segoe UI, Arial" font-size="24" font-weight="700">Pipeline</text>
</svg>