<svg xmlns="http://www.w3.org/2000/svg" width="960" height="600" viewBox="0 0 960 600" role="img" aria-label="Growth Packages">
  <defs>
    <linearGradient id="bg" x1="0" x2="1" y1="0" y2="1">
      <stop offset="0" stop-color="#ffffff"/>
      <stop offset="1" stop-color="#eef5f8"/>
    </linearGradient>
    <linearGradient id="accent" x1="0" x2="1" y1="0" y2="1">
      <stop offset="0" stop-color="#d99a22"/>
      <stop offset="1" stop-color="#2563eb"/>
    </linearGradient>
    <filter id="shadow" x="-20%" y="-20%" width="140%" height="140%">
      <feDropShadow dx="0" dy="18" stdDeviation="18" flood-color="#102842" flood-opacity=".16"/>
    </filter>
  </defs>
  <rect width="960" height="600" rx="34" fill="url(#bg)"/>
  <circle cx="780" cy="82" r="170" fill="#d99a22" opacity=".12"/>
  <circle cx="130" cy="520" r="210" fill="#2563eb" opacity=".08"/>
  <rect x="72" y="70" width="816" height="460" rx="28" fill="#fff" filter="url(#shadow)"/>
  <text x="112" y="132" fill="#102842" font-family="Georgia, serif" font-size="42" font-weight="700">Growth Packages</text>
  <text x="114" y="170" fill="#65748a" font-family="Segoe UI, Arial" font-size="20">Scope, stage, tracking depth</text>
  
    <rect x="120" y="238" width="188" height="220" rx="28" fill="#102842"/>
    <rect x="386" y="198" width="188" height="260" rx="28" fill="#2563eb"/>
    <rect x="652" y="270" width="188" height="188" rx="28" fill="#1a9b72"/>
    <rect x="158" y="284" width="112" height="22" rx="11" fill="#fff" opacity=".24"/><rect x="424" y="250" width="112" height="22" rx="11" fill="#fff" opacity=".28"/><rect x="690" y="314" width="112" height="22" rx="11" fill="#fff" opacity=".28"/>
    <path d="M168 398 H260 M434 388 H526 M700 390 H792" stroke="#fff" stroke-opacity=".55" stroke-width="14" stroke-linecap="round"/>
</svg>