<svg xmlns="http://www.w3.org/2000/svg" width="960" height="600" viewBox="0 0 960 600" role="img" aria-label="CRM Automation">
  <defs>
    <linearGradient id="bg" x1="0" x2="1" y1="0" y2="1">
      <stop offset="0" stop-color="#ffffff"/>
      <stop offset="1" stop-color="#eef5f8"/>
    </linearGradient>
    <linearGradient id="accent" x1="0" x2="1" y1="0" y2="1">
      <stop offset="0" stop-color="#06b6d4"/>
      <stop offset="1" stop-color="#2563eb"/>
    </linearGradient>
    <filter id="shadow" x="-20%" y="-20%" width="140%" height="140%">
      <feDropShadow dx="0" dy="18" stdDeviation="18" flood-color="#102842" flood-opacity=".16"/>
    </filter>
  </defs>
  <rect width="960" height="600" rx="34" fill="url(#bg)"/>
  <circle cx="780" cy="82" r="170" fill="#06b6d4" opacity=".12"/>
  <circle cx="130" cy="520" r="210" fill="#2563eb" opacity=".08"/>
  <rect x="72" y="70" width="816" height="460" rx="28" fill="#fff" filter="url(#shadow)"/>
  <text x="112" y="132" fill="#102842" font-family="Georgia, serif" font-size="42" font-weight="700">CRM Automation</text>
  <text x="114" y="170" fill="#65748a" font-family="Segoe UI, Arial" font-size="20">Lead handoff, nurture, follow-up</text>
  
    <rect x="112" y="258" width="166" height="112" rx="26" fill="#102842"/>
    <rect x="386" y="206" width="166" height="112" rx="26" fill="#2563eb"/>
    <rect x="386" y="398" width="166" height="112" rx="26" fill="#1a9b72"/>
    <rect x="660" y="258" width="166" height="112" rx="26" fill="#d99a22"/>
    <path d="M278 314 H386 M469 318 V398 M552 262 H660 M552 454 H706 V370" fill="none" stroke="#cbd8e6" stroke-width="14" stroke-linecap="round" stroke-linejoin="round"/>
    <circle cx="195" cy="314" r="24" fill="#06b6d4"/><circle cx="469" cy="262" r="24" fill="#fff" opacity=".9"/><circle cx="469" cy="454" r="24" fill="#fff" opacity=".9"/><circle cx="743" cy="314" r="24" fill="#102842"/>
</svg>