<svg xmlns="http://www.w3.org/2000/svg" width="960" height="600" viewBox="0 0 960 600" role="img" aria-label="Analytics Tracking">
  <defs>
    <linearGradient id="bg" x1="0" x2="1" y1="0" y2="1">
      <stop offset="0" stop-color="#ffffff"/>
      <stop offset="1" stop-color="#eef5f8"/>
    </linearGradient>
    <linearGradient id="accent" x1="0" x2="1" y1="0" y2="1">
      <stop offset="0" stop-color="#1a9b72"/>
      <stop offset="1" stop-color="#2563eb"/>
    </linearGradient>
    <filter id="shadow" x="-20%" y="-20%" width="140%" height="140%">
      <feDropShadow dx="0" dy="18" stdDeviation="18" flood-color="#102842" flood-opacity=".16"/>
    </filter>
  </defs>
  <rect width="960" height="600" rx="34" fill="url(#bg)"/>
  <circle cx="780" cy="82" r="170" fill="#1a9b72" opacity=".12"/>
  <circle cx="130" cy="520" r="210" fill="#2563eb" opacity=".08"/>
  <rect x="72" y="70" width="816" height="460" rx="28" fill="#fff" filter="url(#shadow)"/>
  <text x="112" y="132" fill="#102842" font-family="Georgia, serif" font-size="42" font-weight="700">Analytics Tracking</text>
  <text x="114" y="170" fill="#65748a" font-family="Segoe UI, Arial" font-size="20">GA4, GTM, pixels, events</text>
  
    <rect x="112" y="230" width="690" height="238" rx="28" fill="#102842"/>
    <rect x="154" y="276" width="122" height="144" rx="16" fill="#2563eb"/><rect x="310" y="334" width="122" height="86" rx="16" fill="#06b6d4"/><rect x="466" y="300" width="122" height="120" rx="16" fill="#1a9b72"/><rect x="622" y="248" width="122" height="172" rx="16" fill="#d99a22"/>
    <path d="M154 440 H744" stroke="#fff" stroke-opacity=".22" stroke-width="10" stroke-linecap="round"/>
</svg>